<svg xmlns="http://www.w3.org/2000/svg" viewBox="0 0 19 14">
    <path fill="#777" d="m18.7 8.6l-2.9-4.8c-0.1-0.1-0.2-0.2-0.4-0.2s-0.3 0.1-0.4 0.2l-0.9 1.7-0.3-0.5 0.9-2.2c0.1-0.1 0.2-0.5 0.3-0.9 0-0.1 0.1-0.2 0.1-0.4v-0.1c0-0.8-0.6-1.4-1.4-1.4-0.7 0-1.4 0.6-1.4 1.3-0.3-0.1-0.5-0.2-0.8-0.2-1.3 0-2 1.3-2 1.3s-0.7-1.3-2-1.3c-0.3 0-0.6 0.1-0.8 0.2 0-0.7-0.6-1.3-1.4-1.3s-1.4 0.6-1.4 1.4v0.1c0 0.1 0 0.3 0.1 0.4 0.1 0.3 0.2 0.7 0.3 0.9l0.9 2.2-0.3 0.5-0.9-1.7c-0.1-0.2-0.3-0.2-0.4-0.2-0.2 0-0.3 0.1-0.4 0.2l-2.9 4.8v0.4l1.2 2.3v0.1c0 0.3 0.3 0.6 0.6 0.6s0.6-0.3 0.6-0.6c0-0.2-0.2-0.5-0.4-0.5l-1.1-2 2.3-3.8 0.7 1.5-1.4 2.5c-0.1 0.1-0.1 0.3 0 0.5l1.1 1.7v0.1c0 0.3 0.3 0.6 0.6 0.6s0.6-0.3 0.6-0.6-0.2-0.5-0.4-0.5l-1-1.6 1.9-3c0 0.1 0.1 0.3 0.1 0.4 0.4 1.4 1 1.9 1.8 1.9 0.5 0 1.2-0.5 1.2-1.4 0.1-1.3 1.6-1.3 1.7 0 0.1 0.9 0.8 1.4 1.2 1.4 0.8 0 1.4-0.5 1.8-1.9 0-0.1 0.1-0.3 0.1-0.4l1.9 3-0.9 1.5c-0.2 0.1-0.4 0.3-0.4 0.5 0 0.3 0.3 0.6 0.6 0.6s0.6-0.3 0.6-0.6v-0.1l1.1-1.7c0.1-0.1 0.1-0.3 0-0.5l-1.4-2.5 0.7-1.5 2.3 3.8-1.1 2c-0.2 0.1-0.4 0.3-0.4 0.5 0 0.3 0.3 0.6 0.6 0.6s0.6-0.3 0.6-0.6v-0.1l1-2.2v-0.4z"/>
    <g>
        <circle cy="1.5" cx="13.7" r=".9"/>
        <circle cy="1.5" cx="5.3" r=".9"/>
        <circle cy="3.6" cx="7.5" r="1.9"/>
        <circle cy="3.6" cx="11.5" r="1.9"/>
    </g>
    <g fill="#fff">
        <ellipse cy="2.5" cx="7.7" rx=".7" ry=".3"/>
        <ellipse cy="2.5" cx="11.7" rx=".7" ry=".3"/>
    </g>
</svg>
